<svg xmlns="http://www.w3.org/2000/svg" viewBox="0 0 1600 900" role="img" aria-labelledby="title desc">
  <title id="title">HS770 Ahrefs AI citations and organic growth overview</title>
  <desc id="desc">Ahrefs overview evidence for HS770 showing 80 AI Overview citations, 298 ChatGPT citations, DR 30, 28K backlinks, 626 referring domains, 1.3K organic keywords and 1.4K organic traffic.</desc>
  <rect width="1600" height="900" fill="#222426"/>
  <text x="60" y="28" fill="#f1f3f4" font-family="Arial, Helvetica, sans-serif" font-size="24" font-weight="700">Overview: <tspan fill="#6ec6ff">hs770.com/</tspan></text>
  <text x="328" y="28" fill="#a8adb4" font-family="Arial, Helvetica, sans-serif" font-size="19">We Deliver, When Others Don't - Health Supply 770 INC.</text>
  <rect x="20" y="52" width="1560" height="64" fill="#313335"/>
  <g font-family="Arial, Helvetica, sans-serif" font-size="20">
    <rect x="40" y="70" width="176" height="32" rx="4" fill="none" stroke="#6d7278"/>
    <text x="54" y="93" fill="#e8eaed">Monthly volume</text>
    <rect x="228" y="70" width="172" height="32" rx="4" fill="none" stroke="#6d7278"/>
    <text x="270" y="93" fill="#e8eaed">All locations</text>
    <rect x="412" y="70" width="188" height="32" rx="4" fill="none" stroke="#6d7278"/>
    <text x="454" y="93" fill="#e8eaed">Best links: Off</text>
    <rect x="610" y="70" width="274" height="32" rx="4" fill="none" stroke="#6d7278"/>
    <text x="650" y="93" fill="#e8eaed">Changes: Last 6 months</text>
  </g>

  <rect x="20" y="136" width="512" height="306" fill="#303234"/>
  <text x="42" y="176" fill="#f1f3f4" font-family="Arial, Helvetica, sans-serif" font-size="21" font-weight="700">AI citations</text>
  <g font-family="Arial, Helvetica, sans-serif">
    <text x="42" y="220" fill="#e8eaed" font-size="19">AI Overview</text>
    <text x="80" y="262" fill="#6ec6ff" font-size="34">80</text>
    <text x="132" y="260" fill="#35d28d" font-size="18">+77</text>
    <text x="42" y="294" fill="#d7d9dc" font-size="18">Pages <tspan fill="#6ec6ff">23</tspan> <tspan fill="#35d28d">+20</tspan></text>

    <text x="286" y="220" fill="#e8eaed" font-size="19">ChatGPT</text>
    <text x="326" y="262" fill="#6ec6ff" font-size="34">298</text>
    <text x="396" y="260" fill="#35d28d" font-size="18">+298</text>
    <text x="286" y="294" fill="#d7d9dc" font-size="18">Pages <tspan fill="#6ec6ff">126</tspan> <tspan fill="#35d28d">+126</tspan></text>

    <text x="42" y="348" fill="#e8eaed" font-size="19">Perplexity</text>
    <text x="72" y="388" fill="#6ec6ff" font-size="28">77</text>
    <text x="112" y="386" fill="#35d28d" font-size="17">+77</text>
    <text x="42" y="424" fill="#d7d9dc" font-size="17">Pages <tspan fill="#6ec6ff">38</tspan> <tspan fill="#35d28d">+38</tspan></text>

    <text x="204" y="348" fill="#e8eaed" font-size="19">Gemini</text>
    <text x="238" y="388" fill="#6ec6ff" font-size="28">39</text>
    <text x="274" y="386" fill="#35d28d" font-size="17">+39</text>
    <text x="204" y="424" fill="#d7d9dc" font-size="17">Pages <tspan fill="#6ec6ff">59</tspan> <tspan fill="#35d28d">+59</tspan></text>

    <text x="368" y="348" fill="#e8eaed" font-size="19">Copilot</text>
    <text x="402" y="388" fill="#6ec6ff" font-size="28">89</text>
    <text x="440" y="386" fill="#35d28d" font-size="17">+89</text>
    <text x="368" y="424" fill="#d7d9dc" font-size="17">Pages <tspan fill="#6ec6ff">38</tspan> <tspan fill="#35d28d">+38</tspan></text>
  </g>

  <rect x="552" y="136" width="512" height="306" fill="#303234"/>
  <text x="574" y="176" fill="#f1f3f4" font-family="Arial, Helvetica, sans-serif" font-size="21" font-weight="700">Backlink profile</text>
  <circle cx="606" cy="234" r="32" fill="none" stroke="#4a4c4f" stroke-width="16"/>
  <path d="M606 202 A32 32 0 0 1 632 216" fill="none" stroke="#8a63d2" stroke-width="16"/>
  <circle cx="852" cy="234" r="32" fill="none" stroke="#4a4c4f" stroke-width="16"/>
  <path d="M852 202 A32 32 0 0 1 882 223" fill="none" stroke="#8bbf3f" stroke-width="16"/>
  <g font-family="Arial, Helvetica, sans-serif">
    <text x="650" y="222" fill="#e8eaed" font-size="20">DR</text>
    <text x="650" y="264" fill="#f1f3f4" font-size="42">30</text>
    <text x="700" y="262" fill="#35d28d" font-size="18">+13</text>
    <text x="650" y="298" fill="#d7d9dc" font-size="18">AR <tspan fill="#6ec6ff">3,479,837</tspan></text>
    <text x="894" y="222" fill="#e8eaed" font-size="20">UR</text>
    <text x="894" y="264" fill="#f1f3f4" font-size="42">16</text>
    <text x="940" y="262" fill="#35d28d" font-size="18">+2</text>
    <text x="574" y="346" fill="#d7d9dc" font-size="21">Backlinks</text>
    <text x="574" y="388" fill="#6ec6ff" font-size="40">28K</text>
    <text x="646" y="386" fill="#35d28d" font-size="18">+20.7K</text>
    <text x="574" y="424" fill="#d7d9dc" font-size="18">All time 55K</text>
    <text x="818" y="346" fill="#d7d9dc" font-size="21">Ref. domains</text>
    <text x="818" y="388" fill="#6ec6ff" font-size="40">626</text>
    <text x="892" y="386" fill="#35d28d" font-size="18">+42</text>
    <text x="818" y="424" fill="#d7d9dc" font-size="18">All time 3.8K</text>
  </g>

  <rect x="1064" y="136" width="516" height="306" fill="#303234"/>
  <text x="1086" y="176" fill="#f1f3f4" font-family="Arial, Helvetica, sans-serif" font-size="21" font-weight="700">Search</text>
  <g font-family="Arial, Helvetica, sans-serif">
    <text x="1086" y="220" fill="#e8eaed" font-size="20">Organic keywords</text>
    <text x="1086" y="264" fill="#6ec6ff" font-size="40">1.3K</text>
    <text x="1160" y="262" fill="#ff6b6b" font-size="18">-8.5K</text>
    <text x="1086" y="298" fill="#d7d9dc" font-size="18">Top 3 <tspan fill="#6ec6ff">321</tspan> <tspan fill="#35d28d">+284</tspan></text>
    <text x="1332" y="220" fill="#e8eaed" font-size="20">Organic traffic</text>
    <text x="1332" y="264" fill="#6ec6ff" font-size="40">1.4K</text>
    <text x="1406" y="262" fill="#ff6b6b" font-size="18">-517</text>
    <text x="1332" y="298" fill="#d7d9dc" font-size="18">Value $315 <tspan fill="#ff6b6b">-159</tspan></text>
    <text x="1086" y="350" fill="#e8eaed" font-size="20">Paid keywords</text>
    <text x="1086" y="390" fill="#6ec6ff" font-size="40">0</text>
    <text x="1332" y="350" fill="#e8eaed" font-size="20">Paid traffic</text>
    <text x="1332" y="390" fill="#6ec6ff" font-size="40">0</text>
  </g>

  <g font-family="Arial, Helvetica, sans-serif" font-size="20">
    <rect x="20" y="474" width="96" height="38" rx="4" fill="#3b3d40"/>
    <text x="36" y="500" fill="#f1f3f4">General</text>
    <text x="132" y="500" fill="#e8eaed">Backlink profile</text>
    <text x="286" y="500" fill="#e8eaed">Organic search</text>
    <text x="442" y="500" fill="#e8eaed">Paid search</text>
  </g>
  <rect x="20" y="532" width="1028" height="332" fill="#303234"/>
  <text x="42" y="626" fill="#f1f3f4" font-family="Arial, Helvetica, sans-serif" font-size="21" font-weight="700">Performance</text>
  <line x1="42" y1="812" x2="1028" y2="812" stroke="#4c4f52"/>
  <line x1="42" y1="746" x2="1028" y2="746" stroke="#3f4245"/>
  <line x1="42" y1="680" x2="1028" y2="680" stroke="#3f4245"/>
  <path d="M682 820 L704 760 L728 728 L746 724 L764 660 L792 548 L822 522 L850 592 L870 600 L892 568 L912 560 L928 630 L950 588 L970 582 L988 614" fill="none" stroke="#ff8a00" stroke-width="4"/>
  <path d="M682 820 L704 760 L728 728 L746 724 L764 660 L792 548 L822 522 L850 592 L870 600 L892 568 L912 560 L928 630 L950 588 L970 582 L988 614 L988 812 L682 812 Z" fill="#a15d27" opacity=".45"/>
  <text x="904" y="666" fill="#ff8a00" font-family="Arial, Helvetica, sans-serif" font-size="16">Avg. organic traffic</text>
  <text x="995" y="706" fill="#ff8a00" font-family="Arial, Helvetica, sans-serif" font-size="17">2.2K</text>
  <text x="995" y="772" fill="#ff8a00" font-family="Arial, Helvetica, sans-serif" font-size="17">1.7K</text>

  <rect x="1068" y="532" width="512" height="392" fill="#303234"/>
  <text x="1090" y="572" fill="#f1f3f4" font-family="Arial, Helvetica, sans-serif" font-size="21" font-weight="700">Traffic by location</text>
  <rect x="1360" y="548" width="120" height="32" rx="4" fill="#9a5d1f"/>
  <text x="1374" y="572" fill="#f1f3f4" font-family="Arial, Helvetica, sans-serif" font-size="18">Organic 66</text>
  <line x1="1090" y1="596" x2="1560" y2="596" stroke="#4c4f52"/>
  <g font-family="Arial, Helvetica, sans-serif" font-size="18">
    <text x="1090" y="626" fill="#e8eaed" font-weight="700">Location</text>
    <text x="1294" y="626" fill="#e8eaed" font-weight="700">Traffic</text>
    <text x="1402" y="626" fill="#e8eaed" font-weight="700">Share</text>
    <text x="1474" y="626" fill="#e8eaed" font-weight="700">Keywords</text>
    <rect x="1090" y="642" width="410" height="44" fill="#65473d"/>
    <text x="1100" y="670" fill="#e8eaed">US</text><text x="1294" y="670" fill="#e8eaed">1.2K</text><text x="1402" y="670" fill="#e8eaed">88.0%</text><text x="1474" y="670" fill="#6ec6ff">1.1K</text>
    <text x="1100" y="714" fill="#e8eaed">IN</text><text x="1294" y="714" fill="#e8eaed">46</text><text x="1402" y="714" fill="#e8eaed">3.4%</text><text x="1474" y="714" fill="#6ec6ff">136</text>
    <text x="1100" y="758" fill="#e8eaed">CA</text><text x="1294" y="758" fill="#e8eaed">43</text><text x="1402" y="758" fill="#e8eaed">3.2%</text><text x="1474" y="758" fill="#6ec6ff">42</text>
    <text x="1100" y="802" fill="#e8eaed">GB</text><text x="1294" y="802" fill="#e8eaed">31</text><text x="1402" y="802" fill="#e8eaed">2.3%</text><text x="1474" y="802" fill="#6ec6ff">18</text>
    <text x="1100" y="846" fill="#e8eaed">PH</text><text x="1294" y="846" fill="#e8eaed">21</text><text x="1402" y="846" fill="#e8eaed">1.5%</text><text x="1474" y="846" fill="#6ec6ff">68</text>
  </g>
</svg>
